<svg xmlns="http://www.w3.org/2000/svg" width="1300.649" height="289.555" viewBox="0 0 1300.649 289.555">
  <g id="Group_5382" data-name="Group 5382" transform="translate(-93.275 -38.241)">
    <g id="Group_5378" data-name="Group 5378">
      <path id="Path_13424" data-name="Path 13424" d="M291.178,208.625l-50,68.375a2.571,2.571,0,0,1-1.918,1.228h-.026a2.521,2.521,0,0,1-1.912-1.214l-33.795-43.285-19.98,27.311,49.615,63.29a8.6,8.6,0,0,0,6.711,3.466c.044,0,.09,0,.137,0a8.686,8.686,0,0,0,6.8-3.768l84.131-115.4Z" fill="#0b1b31"/>
      <path id="Path_13425" data-name="Path 13425" d="M335.984,201.7l.077-.105h-.077Z" fill="#0b1b31"/>
    </g>
    <g id="Group_5381" data-name="Group 5381">
      <g id="Group_5379" data-name="Group 5379">
        <path id="Path_13426" data-name="Path 13426" d="M460.148,116.8h21.438l59.99,139.254H513.253l-12.981-31.864H439.889L427.3,256.056H399.569Zm31.47,86.148L470.179,146.3,448.347,202.95Z" fill="#0b1b31"/>
        <path id="Path_13427" data-name="Path 13427" d="M605.295,187.806c-4.524-6.294-10.424-9.638-18.489-9.638-6.294,0-13.768,2.95-13.768,10.031,0,16.915,50.942,3.147,50.942,39.927,0,22.423-21.439,30.29-40.714,30.29-14.555,0-27.143-3.737-36.78-14.555l15.735-14.752c6.1,6.688,12.391,11.605,22.422,11.605,6.884,0,15.734-3.344,15.734-10.818,0-19.471-50.941-4.131-50.941-40.124,0-21.045,18.882-30.486,37.961-30.486,12.588,0,25.962,3.934,33.633,14.358Z" fill="#0b1b31"/>
        <path id="Path_13428" data-name="Path 13428" d="M692.618,187.806c-4.525-6.294-10.425-9.638-18.49-9.638-6.294,0-13.767,2.95-13.767,10.031,0,16.915,50.941,3.147,50.941,39.927,0,22.423-21.438,30.29-40.714,30.29-14.554,0-27.142-3.737-36.78-14.555l15.735-14.752c6.1,6.688,12.391,11.605,22.422,11.605,6.884,0,15.735-3.344,15.735-10.818,0-19.471-50.942-4.131-50.942-40.124,0-21.045,18.882-30.486,37.961-30.486,12.588,0,25.962,3.934,33.633,14.358Z" fill="#0b1b31"/>
        <path id="Path_13429" data-name="Path 13429" d="M741.586,115.426c8.655,0,15.342,6.1,15.342,14.161s-6.687,14.161-15.342,14.161-14.947-6.688-14.947-14.161S732.933,115.426,741.586,115.426Zm-11.6,46.22h23.6v94.41h-23.6Z" fill="#0b1b31"/>
        <path id="Path_13430" data-name="Path 13430" d="M877.887,161.646V247.6c0,34.027-16.521,55.662-53.3,55.662-17.505,0-33.436-3.737-46.81-15.538l14.161-19.275c9.44,8.653,19.275,13.571,32.453,13.571,22.816,0,29.9-12.981,29.9-31.667v-6.883h-.394c-6.884,9.244-19.079,13.767-30.88,13.767C794.689,257.235,776,235.6,776,208.851c0-27.929,17.5-49.565,46.615-49.565,13.177,0,25.569,5.114,32.453,16.521h.393V161.646Zm-78.28,47.008a27.246,27.246,0,0,0,27.732,27.34c17.505,0,28.126-12,28.126-27.733,0-16.325-10.817-27.733-27.929-27.733C811.014,180.528,799.607,191.936,799.607,208.654Z" fill="#0b1b31"/>
        <path id="Path_13431" data-name="Path 13431" d="M904.63,161.646h22.422v15.145h.394c4.327-9.441,13.177-17.505,28.912-17.505,25.373,0,34.421,17.9,34.421,37.174v59.6h-23.6V208.261c0-10.424-.787-27.733-17.308-27.733-15.538,0-21.636,11.408-21.636,24v51.532h-23.6Z" fill="#0b1b31"/>
        <path id="Path_13432" data-name="Path 13432" d="M1033.257,226.946c8.458,0,15.736,6.49,15.736,14.948a15.575,15.575,0,0,1-15.736,15.341c-8.26,0-15.734-6.49-15.734-14.947A15.574,15.574,0,0,1,1033.257,226.946Z" fill="#0b1b31"/>
      </g>
      <g id="Group_5380" data-name="Group 5380">
        <path id="Path_13433" data-name="Path 13433" d="M1100.259,256.056l-28.455-97.8h9.394l24.31,86.608h.277l24.725-86.608h11.6l24.725,86.608h.276l24.311-86.608h9.393l-28.455,97.8h-11.189l-24.725-87.023h-.277l-24.725,87.023Z" fill="#0b1b31"/>
        <path id="Path_13434" data-name="Path 13434" d="M1215.944,248.251q-9.463-9.461-9.462-24.1t9.462-24.1q9.459-9.461,24.1-9.462t24.1,9.462q9.459,9.462,9.462,24.1t-9.462,24.1q-9.463,9.462-24.1,9.462T1215.944,248.251Zm5.732-42.683a28.443,28.443,0,0,0,0,37.157q6.906,7.531,18.372,7.529t18.371-7.529a28.439,28.439,0,0,0,0-37.157q-6.907-7.525-18.371-7.528T1221.676,205.568Z" fill="#0b1b31"/>
        <path id="Path_13435" data-name="Path 13435" d="M1292.122,256.056V210.2q0-2.487-.345-9.462t-.345-8.495h8.287q.276,10.085.553,11.189,7.18-12.847,20.306-12.847a20.375,20.375,0,0,1,4.834.69l-.967,8.151a10.076,10.076,0,0,0-3.177-.553q-10.359,0-15.608,6.216t-5.249,16.161v34.81Z" fill="#0b1b31"/>
        <path id="Path_13436" data-name="Path 13436" d="M1338.12,256.056V151.628h8.288v69.618l31.493-28.869h12.156l-32.876,29.145,36.743,34.534h-12.569l-34.947-33.705v33.705Z" fill="#0b1b31"/>
      </g>
    </g>
    <path id="Path_13437" data-name="Path 13437" d="M216.621,41.7a8.074,8.074,0,0,0-13.477.336L93.275,196.555h39.078l76.61-107.741a2.34,2.34,0,0,1,1.671-1.152c.6-.073,1.1.349,1.611,1.013l57.992,75.1H251.785l-24.993,32.886H329.786l6.2-.11h.214Z" fill="#0b1b31"/>
    <path id="Path_13438" data-name="Path 13438" d="M210,294.948l-5.768-7.593,19.993-27.208Z" opacity="0.3"/>
    <path id="Path_13439" data-name="Path 13439" d="M221.875,208.625l-50,68.375a2.571,2.571,0,0,1-1.918,1.228h-.026a2.48,2.48,0,0,1-1.855-1.111l-33.5-42.992h-41.3l70.581,90.2a8.592,8.592,0,0,0,6.71,3.467c.045,0,.091,0,.137,0a8.681,8.681,0,0,0,6.8-3.767l84.131-115.4Z" fill="#2680eb" opacity="0.9"/>
  </g>
</svg>
