<svg xmlns="http://www.w3.org/2000/svg" xmlns:xlink="http://www.w3.org/1999/xlink" width="814.633" height="400.561" viewBox="0 0 814.633 400.561"><defs><style>.a,.b,.c,.d{fill:#ecf1f7;}.a{opacity:0.38;}.b{opacity:0.53;}.c{opacity:0.86;}.d{opacity:0.75;}.e,.g{fill:#2680eb;}.e,.f{opacity:0.5;}.h{fill:#fff;}.i{fill:#599af2;opacity:0.39;}.j{fill:#ffc957;}.bj,.k,.l,.n,.o,.p{fill:none;stroke-linecap:round;}.k{stroke:#2a294f;stroke-width:0.78px;}.k,.l,.n,.o,.p{stroke-linejoin:round;}.l,.p{stroke:#2680eb;}.m{fill:#6aa5fe;}.n{stroke:#1a55b5;}.n,.o,.p{stroke-width:0.867px;}.o{stroke:#6aa5fe;}.q{fill:#eea886;}.r{fill:#cf8c6c;}.s{fill:#3b3f66;}.t{fill:#555c94;}.u{fill:#2b2e4a;}.v{fill:#323657;}.w{fill:#ff9f55;}.x{fill:#f75a5a;}.y{fill:#202338;}.z{fill:#eea987;}.aa{fill:#543628;}.ab{fill:#c48a6f;}.ac{fill:#a53c3b;}.ad{fill:#db9c7c;}.ae{fill:#e55353;}.af{fill:#b36222;}.ag{fill:#005ca6;}.ah{fill:#f0f0f0;}.ai{fill:#ffdf69;}.aj{fill:#c9c9c9;}.ak{fill:#deba35;}.al{fill:#0a5ec2;}.am{fill:url(#a);}.an{fill:#c78d71;}.ao{fill:#1d2033;}.ap{fill:#50558a;}.aq{fill:#1a598c;}.ar{fill:#bfb9b7;}.as{fill:#f2ebe9;}.at{fill:#f5eeec;}.au{fill:#3d8ed1;}.av{fill:#ded7d5;}.aw{fill:#2f6b8c;}.ax{fill:#292c47;}.ay{fill:#00447a;}.az{fill:#0076d6;}.ba{fill:#0064b5;}.bb{fill:#434343;}.bc{fill:#b3d5fe;}.bd{fill:#81807e;}.be{fill:#dbd8e3;}.bf{fill:#a77860;}.bg{fill:#c4c1cc;}.bh{fill:#cee9ff;}.bi{fill:#373449;}.bj{stroke:#373449;stroke-miterlimit:10;stroke-width:2px;}.bk{fill:#1767d1;}.bl{fill:#e2d2ca;}.bm{fill:#706865;}.bn{fill:#ccbdb7;}.bo{fill:#b59074;}.bp{fill:#ead8cf;}.bq{fill:#da9b5b;}.br{fill:#424773;}.bs{fill:#3a3f47;}.bt{fill:#918783;}.bu{fill:#5e5854;}.bv{fill:#bfb2ac;}.bw{fill:#f2e2d9;}.bx{fill:#f5f7ff;}.by{fill:#918681;}.bz{fill:#dfe1e8;}</style><linearGradient id="a" y1="0.5" x2="1" y2="0.5" gradientUnits="objectBoundingBox"><stop offset="0" stop-color="#ff9f55"/><stop offset="1" stop-color="#ffd255"/></linearGradient></defs><g transform="translate(-551 -362.929)"><path class="a" d="M1365.633,3572.166H551l.379-218.984s73.068-75.29,213.084-58.9,180.282,46.594,332.295,58.9,268.875-59.086,268.875-59.086Z" transform="translate(0 -2808.675)"/><path class="b" d="M551,3397.011s79.582-101.576,277.893-75.5,163.511,67.187,339.769,23.173,196.87-78.244,196.87-78.244v295.288L551,3564.773Z" transform="translate(0 -2805.438)"/><path class="c" d="M57.352,320.487A16.079,16.079,0,0,0,46.738,340.6c2.621,8.484,13.446,19.132,21.93,16.509S73.5,341.05,75.3,332.355C77.819,320.229,65.836,317.865,57.352,320.487Z" transform="translate(1241.186 43.403)"/><path class="d" d="M54.659,13.283A25.185,25.185,0,0,0,20.558,3C8.3,9.573-4.819,29.409,1.758,41.666S27.89,44.28,41.8,44.443C61.2,44.671,61.234,25.54,54.659,13.283Z" transform="matrix(0.839, 0.545, -0.545, 0.839, 599.932, 413.659)"/><g transform="translate(707.724 610.081)"><path class="e" d="M948.028,208.208l-4.119-2.232a17.892,17.892,0,0,0,.537-5.182l4.493-1.336a1.613,1.613,0,0,0,1.086-2.005l-1.592-5.355a1.612,1.612,0,0,0-2.005-1.086l-4.493,1.336a17.893,17.893,0,0,0-3.281-4.048l2.231-4.119a1.612,1.612,0,0,0-.65-2.186l-4.912-2.661a1.612,1.612,0,0,0-2.186.65L930.9,184.1a17.841,17.841,0,0,0-5.182-.537l-1.336-4.494a1.612,1.612,0,0,0-2.005-1.086l-5.355,1.592a1.613,1.613,0,0,0-1.086,2.005l1.336,4.492a17.885,17.885,0,0,0-4.047,3.282l-4.12-2.231a1.612,1.612,0,0,0-2.186.65l-2.66,4.912a1.612,1.612,0,0,0,.65,2.186l4.119,2.231a17.9,17.9,0,0,0-.537,5.183L904,203.627a1.613,1.613,0,0,0-1.086,2.005l1.592,5.355a1.613,1.613,0,0,0,2.005,1.086l4.493-1.336a17.881,17.881,0,0,0,3.281,4.048l-2.231,4.119a1.612,1.612,0,0,0,.65,2.186l4.912,2.661a1.613,1.613,0,0,0,2.187-.65l2.231-4.12a17.866,17.866,0,0,0,5.182.538l1.336,4.492a1.613,1.613,0,0,0,2.005,1.086l5.355-1.592A1.614,1.614,0,0,0,937,221.5l-1.336-4.492a17.9,17.9,0,0,0,4.047-3.282l4.12,2.232a1.613,1.613,0,0,0,2.186-.651l2.661-4.912A1.613,1.613,0,0,0,948.028,208.208Zm-27.62,4.527a12.728,12.728,0,1,1,17.254-5.13A12.728,12.728,0,0,1,920.408,212.735Z" transform="translate(-902.848 -177.92)"/></g><g class="f" transform="translate(811.536 522.558) rotate(-22)"><path class="g" d="M59.769,40.067l-5.45-2.952a23.666,23.666,0,0,0,.711-6.856l5.944-1.767a2.134,2.134,0,0,0,1.437-2.653L60.3,18.755a2.132,2.132,0,0,0-2.653-1.436l-5.944,1.767a23.675,23.675,0,0,0-4.341-5.354l2.951-5.449a2.133,2.133,0,0,0-.86-2.892l-6.5-3.52a2.133,2.133,0,0,0-2.892.86l-2.952,5.45A23.6,23.6,0,0,0,30.26,7.47L28.493,1.525A2.132,2.132,0,0,0,25.84.089L18.756,2.2a2.133,2.133,0,0,0-1.437,2.653l1.767,5.943a23.655,23.655,0,0,0-5.353,4.342l-5.45-2.951a2.132,2.132,0,0,0-2.892.86l-3.519,6.5a2.133,2.133,0,0,0,.86,2.892l5.45,2.951A23.679,23.679,0,0,0,7.47,32.24L1.526,34.007A2.134,2.134,0,0,0,.089,36.66L2.2,43.744a2.134,2.134,0,0,0,2.653,1.437l5.944-1.768a23.656,23.656,0,0,0,4.341,5.354l-2.951,5.449a2.133,2.133,0,0,0,.86,2.892l6.5,3.52a2.134,2.134,0,0,0,2.893-.86l2.951-5.45a23.636,23.636,0,0,0,6.856.711l1.767,5.943a2.133,2.133,0,0,0,2.653,1.437L43.744,60.3a2.135,2.135,0,0,0,1.437-2.654l-1.767-5.943a23.679,23.679,0,0,0,5.353-4.342l5.45,2.952a2.134,2.134,0,0,0,2.892-.861l3.52-6.5A2.134,2.134,0,0,0,59.769,40.067ZM23.231,46.056a16.838,16.838,0,1,1,22.825-6.787A16.838,16.838,0,0,1,23.231,46.056Z" transform="translate(0 0)"/></g><g transform="translate(780.215 545.276)"><path class="h" d="M902.588,154.4l-2.706-1.466a11.753,11.753,0,0,0,.353-3.4l2.952-.877a1.059,1.059,0,0,0,.713-1.318l-1.046-3.518a1.059,1.059,0,0,0-1.317-.713l-2.952.877a11.744,11.744,0,0,0-2.155-2.658l1.466-2.706a1.06,1.06,0,0,0-.427-1.436l-3.227-1.748a1.059,1.059,0,0,0-1.436.427l-1.466,2.706a11.755,11.755,0,0,0-3.4-.353l-.878-2.951a1.059,1.059,0,0,0-1.317-.714l-3.518,1.046a1.059,1.059,0,0,0-.713,1.317l.878,2.951a11.768,11.768,0,0,0-2.659,2.156l-2.706-1.466a1.059,1.059,0,0,0-1.435.427l-1.748,3.227a1.06,1.06,0,0,0,.427,1.436l2.706,1.466a11.758,11.758,0,0,0-.353,3.4l-2.951.878a1.059,1.059,0,0,0-.714,1.317L874,156.228a1.06,1.06,0,0,0,1.318.714l2.951-.878a11.745,11.745,0,0,0,2.156,2.658l-1.466,2.706a1.059,1.059,0,0,0,.427,1.436l3.227,1.748a1.059,1.059,0,0,0,1.435-.427l1.466-2.706a11.732,11.732,0,0,0,3.4.353l.877,2.951a1.06,1.06,0,0,0,1.318.714l3.517-1.046a1.06,1.06,0,0,0,.714-1.318l-.877-2.951a11.765,11.765,0,0,0,2.658-2.156l2.706,1.466a1.059,1.059,0,0,0,1.436-.427l1.747-3.227A1.059,1.059,0,0,0,902.588,154.4Zm-18.143,2.974a8.361,8.361,0,1,1,11.334-3.37A8.361,8.361,0,0,1,884.445,157.376Z" transform="translate(-872.911 -134.508)"/></g><path class="i" d="M1232.287,198.328l-2.164-1.172a8.772,8.772,0,0,0,.229-2.625l2.323-.634a.785.785,0,0,0,.546-1.007l-.879-2.733a.875.875,0,0,0-1.054-.57l-2.323.635a9.616,9.616,0,0,0-1.746-2.085l1.121-2.069a.83.83,0,0,0-.359-1.116l-2.58-1.4a.829.829,0,0,0-1.131.309l-1.12,2.069a9.624,9.624,0,0,0-2.7-.322l-.738-2.293a.875.875,0,0,0-1.054-.571l-2.769.757a.785.785,0,0,0-.546,1.007l.738,2.293a8.765,8.765,0,0,0-2.073,1.626l-2.164-1.172a.829.829,0,0,0-1.13.309l-1.336,2.467a.829.829,0,0,0,.359,1.115l2.164,1.173a8.756,8.756,0,0,0-.23,2.624l-2.323.635a.785.785,0,0,0-.546,1.007l.88,2.733a.874.874,0,0,0,1.053.571l2.324-.635a9.613,9.613,0,0,0,1.745,2.085l-1.121,2.069a.829.829,0,0,0,.359,1.115l2.58,1.4a.829.829,0,0,0,1.13-.309l1.121-2.069a9.647,9.647,0,0,0,2.7.322l.738,2.293a.875.875,0,0,0,1.054.57l2.769-.756a.785.785,0,0,0,.545-1.007l-.738-2.293a8.792,8.792,0,0,0,2.073-1.626l2.164,1.172a.829.829,0,0,0,1.13-.309l1.336-2.467A.829.829,0,0,0,1232.287,198.328Zm-14.319,2.031a6.4,6.4,0,1,1,8.923-2.437A6.543,6.543,0,0,1,1217.968,200.359Z" transform="translate(-189.463 434.906)"/><path class="e" d="M1255.3,213.6l-4.28-2.318a17.363,17.363,0,0,0,.454-5.193l4.6-1.254a1.553,1.553,0,0,0,1.079-1.992l-1.74-5.407a1.729,1.729,0,0,0-2.083-1.128l-4.6,1.256a19.028,19.028,0,0,0-3.454-4.125l2.217-4.093a1.641,1.641,0,0,0-.71-2.208l-5.1-2.764a1.64,1.64,0,0,0-2.238.611l-2.216,4.093a19.038,19.038,0,0,0-5.343-.638l-1.459-4.536a1.731,1.731,0,0,0-2.084-1.129l-5.478,1.5a1.553,1.553,0,0,0-1.079,1.992l1.46,4.536a17.335,17.335,0,0,0-4.1,3.217l-4.281-2.318a1.64,1.64,0,0,0-2.236.611l-2.643,4.881a1.639,1.639,0,0,0,.71,2.207l4.281,2.32a17.332,17.332,0,0,0-.455,5.191l-4.6,1.256a1.553,1.553,0,0,0-1.079,1.992l1.741,5.406a1.729,1.729,0,0,0,2.083,1.129l4.6-1.256a19.022,19.022,0,0,0,3.452,4.125l-2.217,4.093a1.639,1.639,0,0,0,.71,2.207l5.1,2.765a1.639,1.639,0,0,0,2.236-.611l2.218-4.093a19.081,19.081,0,0,0,5.341.638l1.46,4.536a1.73,1.73,0,0,0,2.084,1.128l5.478-1.5a1.553,1.553,0,0,0,1.078-1.992l-1.459-4.536a17.4,17.4,0,0,0,4.1-3.217l4.281,2.318a1.64,1.64,0,0,0,2.236-.612l2.644-4.881A1.64,1.64,0,0,0,1255.3,213.6Zm-28.327,4.018c-6.423-3.479-8.933-11.277-5.606-17.418s11.229-8.3,17.652-4.822,8.932,11.278,5.607,17.419S1233.395,221.1,1226.972,217.618Z" transform="translate(76.606 323.226)"/><g transform="translate(683.05 671.835)"><g transform="translate(0 0)"><path class="j" d="M206.374,706.229c-3.431-3.957-7.774-7.371-9.143-12.365-1-3.649-.21-7.51.18-11.273s.253-7.923-2.181-10.819c-2.006-2.386-5.174-3.423-8.222-4.078s-6.229-1.069-8.933-2.619c-4.391-2.518-3.517-6.8-5.874-10.558-2.645-4.215-8.8-9.593-14.077-6.792-5.587,2.964-4.7,11.965-.985,15.94,2.465,2.636,5.622,5.165,5.984,8.757.545,5.406-5.649,10.275-3.945,15.434,1.258,3.812,6.063,5.122,8.435,8.36,2.347,3.2,1.874,7.691.492,11.413s-3.559,7.164-4.419,11.041c-1.759,7.933,4.465,13.414,11.557,15.182,6.516,1.625,20.572.859,20.572.859a26.889,26.889,0,0,0,13.334-10.975,13.955,13.955,0,0,0,.758-12.118A20.228,20.228,0,0,0,206.374,706.229Z" transform="translate(-139.168 -646.95)"/><g transform="translate(0 58.817)"><path class="g" d="M140.788,717.34a2.505,2.505,0,0,1,1.6-.508c.051,0,.1,0,.155,0,2.233,0,4.467,1.419,6.644,4.222a34.037,34.037,0,0,1,4.259,7.241,14.813,14.813,0,0,0-2.687-2.14,39.589,39.589,0,0,0-4.381-2.265c-1.141-.532-2.322-1.081-3.431-1.705a6.058,6.058,0,0,1-2.419-2.1A2.278,2.278,0,0,1,140.788,717.34Z" transform="translate(-136.96 -716.829)"/><path class="g" d="M136.487,735.755a2.508,2.508,0,0,1,1.226-1.143c.046-.024.093-.046.139-.069,2.018-.955,4.645-.629,7.813.973a34.034,34.034,0,0,1,6.947,4.723,14.742,14.742,0,0,0-3.344-.784,39.387,39.387,0,0,0-4.928-.173c-1.259.008-2.561.017-3.831-.073a6.04,6.04,0,0,1-3.085-.863A2.276,2.276,0,0,1,136.487,735.755Z" transform="translate(-136.352 -719.549)"/><path class="g" d="M142.611,746.238a1.716,1.716,0,0,1,.074-1.144c.012-.033.024-.066.037-.1.556-1.421,2.016-2.49,4.341-3.177a23.253,23.253,0,0,1,5.669-.907,10.091,10.091,0,0,0-2.031,1.178,26.937,26.937,0,0,0-2.532,2.224c-.623.593-1.266,1.209-1.939,1.759a4.136,4.136,0,0,1-1.938,1.017A1.556,1.556,0,0,1,142.611,746.238Z" transform="translate(-137.332 -720.641)"/><path class="k" d="M161.118,746.1s-.07-14.709-18.032-27.2" transform="translate(-137.418 -717.157)"/><path class="k" d="M160.661,748.995a22.628,22.628,0,0,0-20.467-11.817" transform="translate(-136.96 -720.05)"/><path class="k" d="M153.161,741.084s-2.895-.212-8.941,4.349" transform="translate(-137.597 -720.669)"/></g></g><path class="l" d="M166.3,658.035s24,37.068,26.608,78.226" transform="translate(-141.092 -648.705)"/></g><g transform="translate(1035.383 662.325)"><g transform="translate(0 0)"><path class="m" d="M517.242,747.07c-.554,10.991-12.512,30.2-23.5,29.651s-16.85-20.667-16.3-31.657,12.259-65.988,23.249-65.434S517.8,736.079,517.242,747.07Z" transform="translate(-477.407 -679.626)"/><line class="n" x1="5.542" y2="89.063" transform="translate(17.215 7.149)"/><path class="j" d="M491.948,744.316a76.391,76.391,0,0,0-5.56,17.276c-.585,3.048-.952,6.349.427,9.129,1.505,3.036,4.849,4.805,8.192,5.354,8.169,1.342,16.341-3.662,21.129-10.415S523,750.653,524.9,742.6c1.5-6.343,2.971-12.781,5.8-18.693,1.211-2.534,8.3-12.316,4.947-14.855-4.587-3.6-17.866.317-26.376,9.607A99.173,99.173,0,0,0,491.948,744.316Z" transform="translate(-477.267 -679.161)"/><path class="o" d="M494.859,775.946s9.865-38.4,33.674-60.418" transform="translate(-477.118 -679.032)"/></g><g transform="translate(40.294 50.901)"><path class="g" d="M549.014,734.9a9.666,9.666,0,0,1-3.864,3.354c-1.771,1-3.658,1.875-5.48,2.723a63.033,63.033,0,0,0-7,3.618,23.582,23.582,0,0,0-4.292,3.419,54.348,54.348,0,0,1,6.8-11.567c3.478-4.477,7.047-6.744,10.614-6.744.082,0,.165,0,.247,0a4.009,4.009,0,0,1,2.552.811C549.808,731.555,549.76,733.56,549.014,734.9Z" transform="translate(-516.856 -729.698)"/><path class="g" d="M552.992,759.346a9.658,9.658,0,0,1-4.927,1.379c-2.028.143-4.108.129-6.119.116a63.165,63.165,0,0,0-7.872.276,23.631,23.631,0,0,0-5.341,1.254,54.34,54.34,0,0,1,11.1-7.545c5.058-2.558,9.254-3.079,12.478-1.553.074.036.148.071.222.11a4,4,0,0,1,1.959,1.826C555.139,756.667,554.239,758.458,552.992,759.346Z" transform="translate(-516.85 -729.322)"/><path class="g" d="M543.567,771.412a6.593,6.593,0,0,1-3.1-1.623c-1.077-.879-2.1-1.861-3.1-2.81a42.983,42.983,0,0,0-4.045-3.552,16.121,16.121,0,0,0-3.244-1.881,37.131,37.131,0,0,1,9.055,1.45c3.715,1.1,6.045,2.806,6.934,5.076.02.052.04.1.059.159a2.739,2.739,0,0,1,.118,1.826A2.483,2.483,0,0,1,543.567,771.412Z" transform="translate(-516.828 -729.171)"/><path class="k" d="M517.044,775.885s.112-23.495,28.8-43.442" transform="translate(-517.044 -729.653)"/><path class="k" d="M517.044,775.484s8.809-18.874,32.689-18.874" transform="translate(-517.044 -729.252)"/><path class="k" d="M529.828,761.776s4.624-.339,14.282,6.947" transform="translate(-516.832 -729.167)"/></g></g><g transform="translate(1287.383 662.325)"><g transform="translate(18.88 0)"><path class="m" d="M477.441,747.07c.554,10.991,12.512,30.205,23.5,29.651s16.851-20.667,16.3-31.657-12.259-65.988-23.249-65.434S476.887,736.079,477.441,747.07Z" transform="translate(-458.007 -679.626)"/><line class="n" x2="5.542" y2="89.063" transform="translate(36.514 7.149)"/><path class="j" d="M530.454,744.316a76.391,76.391,0,0,1,5.56,17.276c.585,3.048.952,6.349-.427,9.129-1.505,3.036-4.849,4.805-8.192,5.354-8.169,1.342-16.341-3.662-21.129-10.415S499.4,750.653,497.5,742.6c-1.5-6.343-2.971-12.781-5.8-18.693-1.211-2.534-8.3-12.316-4.947-14.855,4.587-3.6,17.866.317,26.376,9.607A99.173,99.173,0,0,1,530.454,744.316Z" transform="translate(-485.865 -679.161)"/><path class="p" d="M528.533,775.946s-9.865-38.4-33.674-60.418" transform="translate(-487.005 -679.032)"/></g><g transform="translate(0 50.901)"><path class="g" d="M528.914,734.9a9.666,9.666,0,0,0,3.864,3.354c1.771,1,3.658,1.875,5.48,2.723a63.033,63.033,0,0,1,7,3.618,23.582,23.582,0,0,1,4.292,3.419,54.348,54.348,0,0,0-6.8-11.567c-3.478-4.477-7.047-6.744-10.614-6.744-.082,0-.165,0-.247,0a4.009,4.009,0,0,0-2.552.811C528.12,731.555,528.168,733.56,528.914,734.9Z" transform="translate(-523.216 -729.698)"/><path class="g" d="M530.447,759.346a9.658,9.658,0,0,0,4.927,1.379c2.028.143,4.108.129,6.119.116a63.165,63.165,0,0,1,7.872.276,23.631,23.631,0,0,1,5.341,1.254,54.34,54.34,0,0,0-11.1-7.545c-5.058-2.558-9.254-3.079-12.478-1.553-.074.036-.148.071-.222.11a4,4,0,0,0-1.959,1.826C528.3,756.667,529.2,758.458,530.447,759.346Z" transform="translate(-528.733 -729.322)"/><path class="g" d="M532.877,771.412a6.593,6.593,0,0,0,3.1-1.623c1.077-.879,2.1-1.861,3.1-2.81a42.983,42.983,0,0,1,4.045-3.552,16.121,16.121,0,0,1,3.244-1.881A37.131,37.131,0,0,0,537.3,763c-3.715,1.1-6.045,2.806-6.934,5.076-.02.052-.04.1-.059.159a2.739,2.739,0,0,0-.118,1.826A2.483,2.483,0,0,0,532.877,771.412Z" transform="translate(-521.76 -729.171)"/><path class="k" d="M545.846,775.885s-.112-23.495-28.8-43.442" transform="translate(-507.99 -729.653)"/><path class="k" d="M549.734,775.484s-8.809-18.874-32.689-18.874" transform="translate(-511.878 -729.252)"/><path class="k" d="M544.11,761.776s-4.624-.339-14.282,6.947" transform="translate(-519.249 -729.167)"/></g></g><g transform="translate(1113.229 655.205)"><path class="q" d="M2545.253,1219.608s.579-1.511.675-1.74a3.907,3.907,0,0,1,1.373-.985,4.529,4.529,0,0,1,1.936-.51.7.7,0,0,1,.433.387,1.336,1.336,0,0,1,.124.667.814.814,0,0,1,.3.726.709.709,0,0,1,.175.769.593.593,0,0,1,.176.63,5.393,5.393,0,0,0-.751.584,11.293,11.293,0,0,1-2.737,1.41S2545.561,1221.595,2545.253,1219.608Z" transform="translate(-2520.093 -1198.26)"/><path class="r" d="M2555.348,1232.168a4,4,0,0,1-.078,1.045c-.107.232,1.662.712,1.662.712S2556.337,1232.159,2555.348,1232.168Z" transform="translate(-2528.054 -1211.677)"/><path class="q" d="M2570.591,1238.364s-.465.45-.522.527-2.281-1.331-1.181-2.464S2570.591,1238.364,2570.591,1238.364Z" transform="translate(-2543.727 -1215.08)"/><path class="s" d="M2712.821,1741.726l.726-2.408,3.26.469-.448,2.167Z" transform="translate(-2711.756 -1642.134)"/><path class="t" d="M2572.566,1749.112l.206,1.312,3.548-.656-.224-1.961Z" transform="translate(-2550.059 -1649.338)"/><g transform="translate(1.353 52.454)"><path class="u" d="M2665.459,1454.128s-2.146,12.985-2.618,14.35c-.481,1.392-6.235,20.476-6.235,20.476s-3.767-.041-3.942-.611c0,0,3.265-20.988,3.2-21.776s.709-23.036.709-23.036S2665.2,1452.849,2665.459,1454.128Z" transform="translate(-2652.664 -1443.531)"/></g><g transform="translate(5.149 48.775)"><path class="v" d="M2585.658,1421.368s4.649,21.757,5.043,23.422,2.4,24,2.4,24-.923,1.993-4.475,1.312c0,0-5.25-23.944-5.671-24.742-1.634-3.1-9.649-18.1-10.437-20.247a12.992,12.992,0,0,1-.613-4.672S2577.608,1417.105,2585.658,1421.368Z" transform="translate(-2571.892 -1419.199)"/></g><g transform="translate(14.57 20.626)"><path class="w" d="M2569.781,1235.133s1.953,4.629,2.42,4.483,5.731-6.552,5.731-6.552,2.513,3.025,2.19,3.383c-.451.5-6.612,11.163-7.488,10.988s-4.893-6.557-4.893-6.557S2567.434,1236.018,2569.781,1235.133Z" transform="translate(-2567.727 -1233.064)"/></g><g transform="translate(4.155 13.935)"><path class="w" d="M2620.331,1188.814a78.153,78.153,0,0,1,6.28,5.068c1.364,1.446,5.166,7.478,4.932,9.317a133.222,133.222,0,0,0-1.222,17.848c.047,4.18,1.4,5.222.57,5.3-.951.088-13.076,4.726-14.873,5.3,0,0,.924-14.736,1.494-16.445S2615.248,1195.738,2620.331,1188.814Z" transform="translate(-2616.017 -1188.814)"/></g><path class="h" d="M2478.279,1145.041l.494,5.568.494,5.568a29.883,29.883,0,0,0-13.159-1.97l-.217-2.456-.219-2.47A29.983,29.983,0,0,0,2478.279,1145.041Z" transform="translate(-2436.839 -1137.726)"/><rect class="x" width="1.063" height="11.18" transform="matrix(-0.996, 0.088, -0.088, -0.996, 43.485, 18.357)"/><path class="y" d="M2517.15,1755.869s2.677-.567,2.77-.651.65-1.154,1.069-.976.447,1.469.857,1.68,3.654,2.321,4.055,2.708,2.825.112,3.116.793.342,2.3-3.287,1.982-7.755.345-8.542-.069S2516.919,1756.916,2517.15,1755.869Z" transform="translate(-2494.438 -1654.783)"/><path class="y" d="M2666.259,1749.454s2.734-.132,2.838-.2.827-1.036,1.211-.793.206,1.522.577,1.8,3.236,2.876,3.569,3.322,2.771.563,2.949,1.281-.03,2.324-3.562,1.43-7.71-.9-8.421-1.435S2665.865,1750.451,2666.259,1749.454Z" transform="translate(-2665.195 -1649.861)"/><g transform="translate(13.476 52.003)"><path class="z" d="M2635.5,1440.545s.351,1.323.881,1.6-2.393,3.174-2.393,3.174a25.043,25.043,0,0,1-1.223-2.88A18.2,18.2,0,0,1,2635.5,1440.545Z" transform="translate(-2632.768 -1440.545)"/></g><path class="v" d="M2622.562,1447.858a56.609,56.609,0,0,1,1.192,7.335c-.039,1.725-6.545-2.6-6.25-4.319Z" transform="translate(-2604.288 -1394.749)"/><g transform="translate(8.468 8.327)"><path class="q" d="M2634.238,1157.343s9,9.492,8.441,8.432c-2.007-3.779-3.373-4.4-3.357-5.111.012-.544.2-2.135.223-2.667.051-1.012.111-1.835.111-1.835s-4.494-6.082-4.264-3.987S2634.238,1157.343,2634.238,1157.343Z" transform="translate(-2634.238 -1151.736)"/></g><g transform="translate(7.905 0.717)"><path class="q" d="M2631.277,1103.12a22.343,22.343,0,0,1,1.294,3.5,14.2,14.2,0,0,0-.014,1.949,27.851,27.851,0,0,1,.744,2.916c-.089.56-1.27.29-1.416,1.213s-.97,2.666-1.395,2.708c-1.092.109-5.31-1.525-5.592-2.4s-1.886-5.729-2.374-6.65,7.271-6.151,8.012-4.694Z" transform="translate(-2622.503 -1101.408)"/></g><path class="aa" d="M2626.415,1101.4c-.6-2.409,2.178-2.756,2.178-2.756s1.773-2.139,6.11-1.966,3.775,5.839,3.775,5.839a16.088,16.088,0,0,0-4.3-.043,20.462,20.462,0,0,0,.035,3.013l-1.637-.116s.145-2.146-.641-2.234-.968,4.555-2.411,5.6a1.6,1.6,0,0,0-.209-.645h0a18.547,18.547,0,0,1-1.177-2.346A26.643,26.643,0,0,1,2626.415,1101.4Z" transform="translate(-2620.37 -1096.669)"/><g transform="translate(10.196 6.056)"><path class="q" d="M2663.716,1137.629a1.24,1.24,0,0,0-2.054-.538c-1.031.79.092,3.533,1.109,3.5S2664.173,1139.05,2663.716,1137.629Z" transform="translate(-2661.252 -1136.716)"/></g><path class="ab" d="M2654.764,1173.076a3.177,3.177,0,0,0,.467,1.063,9.669,9.669,0,0,0,3.312,1.651l-.179,1.7S2654.626,1176.126,2654.764,1173.076Z" transform="translate(-2644.711 -1161.521)"/><path class="ac" d="M2549.32,1209.337l.652-.228-2.166-6.265-1.656.572,1.835,5.311A.977.977,0,0,0,2549.32,1209.337Z" transform="translate(-2519.717 -1186.788)"/><path class="ad" d="M2546.885,1216.532s-1.751,1-1.625,1.3a.513.513,0,0,0,.356.337l-.534.739s-.077.689.7.572c0,0-.139.636.594.434,0,0,.1.461.452.427a6.722,6.722,0,0,0,1.456-.725s.215-.259-.127-.639a.714.714,0,0,0-.187-.769.8.8,0,0,0-.3-.742s.115-.841-.588-1.029C2547.073,1216.44,2546.958,1216.49,2546.885,1216.532Z" transform="translate(-2517.928 -1198.328)"/><path class="ae" d="M2544.158,1176.955l6.323-.487-.46-5.191-6.3.738Z" transform="translate(-2519.857 -1159.994)"/><path class="q" d="M2558.7,1226.054a6.847,6.847,0,0,1,2.153.233c.174.067.33.164.334.351s-.263.43-.861.487a5.075,5.075,0,0,0-1.344.407S2558.351,1227.412,2558.7,1226.054Z" transform="translate(-2532.813 -1206.483)"/><path class="af" d="M2672.463,1295.528s-2.328-6.819-2.328-7.272,1.1-8.7,1.1-8.7l-3.185,9.739Z" transform="translate(-2660.641 -1251.895)"/><g transform="translate(2.969 17.943)"><path class="w" d="M2637.771,1217.1s-3.188,16.617-3.443,18.317c-.241,1.61,10.5,16.741,10.5,16.741l3.446-2.127s-8.722-15.219-8.722-15.92,3.809-14.119,3.809-14.119,1.639-2.936-1.385-4.294A2.987,2.987,0,0,0,2637.771,1217.1Z" transform="translate(-2634.324 -1215.318)"/></g></g><g transform="translate(738.867 573.308)"><g transform="translate(0 3.684)"><rect class="ag" width="307.223" height="182.344" rx="6"/><rect class="g" width="37.907" height="37.907" transform="translate(51.984 53.669)"/><rect class="ah" width="37.907" height="37.907" transform="translate(11.197 12.854)"/><rect class="ah" width="37.907" height="37.907" transform="translate(116.095 53.489)"/><rect class="ai" width="37.907" height="37.907" transform="translate(51.984 94.277)"/><rect class="ai" width="37.907" height="37.907" transform="translate(116.095 135.066)"/><rect class="ah" width="37.907" height="37.907" transform="translate(11.197 94.367)"/><g transform="translate(150.973 135.066)"><path class="ah" d="M1272.465,1408.325s-.026,17.546-4.139,32.42l-8.767,5.487H1228.65c5.872-15.627,5.907-37.907,5.907-37.907Z" transform="translate(-1228.65 -1408.325)"/><path class="aj" d="M1429.218,1623.489v-5.614h8.766Z" transform="translate(-1398.309 -1585.582)"/></g><g transform="translate(110.185 94.277)"><path class="ai" d="M1007.793,1143.641s-.026,17.546-4.14,32.42l-8.766,5.487H963.978c5.872-15.627,5.908-37.906,5.908-37.906Z" transform="translate(-963.978 -1143.641)"/><path class="ak" d="M1164.546,1358.805v-5.614h8.766Z" transform="translate(-1133.637 -1320.898)"/></g><rect class="ah" width="37.907" height="37.907" transform="translate(156.882 12.881)"/><g transform="translate(110.185 12.881)"><path class="g" d="M1007.793,615.463s-.026,17.546-4.14,32.42l-8.766,5.487H963.978c5.872-15.627,5.908-37.907,5.908-37.907Z" transform="translate(-963.978 -615.463)"/><path class="al" d="M1164.546,830.627v-5.614h8.766Z" transform="translate(-1133.637 -792.72)"/></g><g transform="translate(5.287 135.066)"><path class="ah" d="M327.105,1408.325s-.026,17.546-4.139,32.42l-8.766,5.487H283.291c5.872-15.627,5.908-37.907,5.908-37.907Z" transform="translate(-283.291 -1408.325)"/><path class="aj" d="M483.859,1623.489v-5.614h8.766Z" transform="translate(-452.95 -1585.582)"/></g><rect class="g" width="37.907" height="37.907" transform="translate(218.619 53.669)"/><rect class="ah" width="37.907" height="37.907" transform="translate(218.619 12.854)"/><rect class="ah" width="37.907" height="37.907" transform="translate(259.406 12.854)"/><rect class="g" width="37.907" height="37.907" transform="translate(259.406 94.277)"/><rect class="ah" width="37.907" height="37.907" transform="translate(259.406 135.066)"/><rect class="ah" width="37.907" height="37.907" transform="translate(218.619 94.367)"/><g transform="translate(212.709 135.066)"><path class="ah" d="M1673.077,1408.325s-.027,17.546-4.14,32.42l-8.766,5.487h-30.909c5.872-15.627,5.908-37.907,5.908-37.907Z" transform="translate(-1629.263 -1408.325)"/><path class="aj" d="M1829.83,1623.489v-5.614h8.766Z" transform="translate(-1798.922 -1585.582)"/></g><g transform="translate(150.973 94.277)"><path class="ah" d="M1272.465,1143.641s-.026,17.546-4.139,32.42l-8.767,5.487H1228.65c5.872-15.627,5.907-37.906,5.907-37.906Z" transform="translate(-1228.65 -1143.641)"/><path class="aj" d="M1429.218,1358.805v-5.614h8.766Z" transform="translate(-1398.309 -1320.898)"/></g><rect class="am" width="2.384" height="182.344" transform="translate(100.875)"/><rect class="am" width="2.384" height="182.344" transform="translate(205.512)"/></g><rect class="am" width="69.831" height="7.411" transform="translate(117.572)"/></g><g transform="translate(573.954 651.238)"><g transform="translate(13.68 1.161)"><path class="z" d="M693.616,1096.719s4.454.752,3.7,7.724-4.687,6.358-4.95,6.348-3.954.084-4.149-8.442C688.215,1102.35,688.158,1096.046,693.616,1096.719Z" transform="translate(-688.215 -1096.669)"/></g><g transform="translate(15.182 12.571)"><path class="z" d="M703.67,1170.421a16.034,16.034,0,0,0,.1,3.516c.271.625-3.559,2.58-5.95.329a24.657,24.657,0,0,0,.333-4.245C698,1168.913,703.67,1170.421,703.67,1170.421Z" transform="translate(-697.82 -1169.614)"/></g><g transform="translate(22.579 6.739)"><path class="z" d="M745.394,1132.555s.494-.516.668.014a8.892,8.892,0,0,1-.729,2.987s-.091.2-.207.09A25.6,25.6,0,0,1,745.394,1132.555Z" transform="translate(-745.103 -1132.33)"/></g><g transform="translate(13.03 6.534)"><path class="z" d="M684.759,1131.262s-.473-.536-.668-.014a8.948,8.948,0,0,0,.606,3.015s.153.241.274.132A25.738,25.738,0,0,0,684.759,1131.262Z" transform="translate(-684.058 -1131.02)"/></g><path class="an" d="M701.9,1181a2.836,2.836,0,0,0,2.363.95,3.214,3.214,0,0,0,2.368-.9,2.882,2.882,0,0,1-2.376,1.618A2.915,2.915,0,0,1,701.9,1181Z" transform="translate(-686.083 -1166.644)"/><path class="ao" d="M609.7,1754.228a9.176,9.176,0,0,1-1.122,1.911c-.513.542-2.479,1.512-2.489,3.123-.012,1.747,3.313,1.262,4.614,1.2s1.4-1,1.946-1.986,1.1-.822,1.2-1.619a9.532,9.532,0,0,0-.419-2.584Z" transform="translate(-605.258 -1650.208)"/><path class="ap" d="M628.305,1749.746l-.1.829a7.225,7.225,0,0,0,3.979.072l-.108-1.132Z" transform="translate(-623.916 -1646.232)"/><g transform="translate(44.755 47.591)"><path class="aq" d="M928.541,1453.1l-.468-.019,2.355-59.122H889.7l-2.356,59.141-.468-.019,2.374-59.591h41.669Z" transform="translate(-886.873 -1393.489)"/></g><g transform="translate(46.664 47.591)"><path class="aq" d="M942.648,1453.1l-2.356-59.141H899.561l2.355,59.122-.468.019-2.374-59.609h41.669l2.374,59.591Z" transform="translate(-899.074 -1393.489)"/></g><g transform="translate(46.907 28.599)"><path class="ar" d="M903,1331.444h41.2l-2.365-59.366h-41.2Z" transform="translate(-900.631 -1272.078)"/></g><g transform="translate(43.827 28.599)"><path class="as" d="M922.14,1331.444h-41.2l2.365-59.366h41.2Z" transform="translate(-880.94 -1272.078)"/></g><g transform="translate(56.582 32.469)"><path class="g" d="M962.93,1334.427l-.449-.16,3.905-10.954,8.468-2.24,3.043-12.023,6.535-2.884,1.464-9.349.471.074-1.5,9.607-6.56,2.9-3.055,12.07-8.5,2.248Z" transform="translate(-962.481 -1296.815)"/></g><g transform="translate(67.881 55.65)"><path class="at" d="M1036.969,1445.473a1.271,1.271,0,1,1-1.788-.18A1.271,1.271,0,0,1,1036.969,1445.473Z" transform="translate(-1034.714 -1445.007)"/></g><g transform="translate(67.644 55.412)"><path class="au" d="M1035.659,1446.164a1.509,1.509,0,1,1,.214-2.123A1.511,1.511,0,0,1,1035.659,1446.164Zm-1.609-1.968a1.032,1.032,0,1,0,1.453.146A1.033,1.033,0,0,0,1034.05,1444.2Z" transform="translate(-1033.195 -1443.487)"/></g><g transform="translate(70.965 43.675)"><path class="at" d="M1056.681,1368.923a1.271,1.271,0,1,1-1.788-.18A1.271,1.271,0,0,1,1056.681,1368.923Z" transform="translate(-1054.426 -1368.456)"/></g><g transform="translate(70.727 43.437)"><path class="au" d="M1055.37,1369.614a1.509,1.509,0,1,1,.214-2.124A1.511,1.511,0,0,1,1055.37,1369.614Zm-1.608-1.968a1.033,1.033,0,1,0,1.453.146A1.034,1.034,0,0,0,1053.762,1367.646Z" transform="translate(-1052.907 -1366.937)"/></g><g transform="translate(77.399 40.709)"><path class="at" d="M1097.815,1349.958a1.271,1.271,0,1,1-1.788-.18A1.271,1.271,0,0,1,1097.815,1349.958Z" transform="translate(-1095.56 -1349.492)"/></g><g transform="translate(59.446 58.001)"><path class="at" d="M983.043,1460.507a1.271,1.271,0,1,1-1.788-.18A1.271,1.271,0,0,1,983.043,1460.507Z" transform="translate(-980.789 -1460.041)"/></g><g transform="translate(59.208 57.764)"><path class="au" d="M981.734,1461.2a1.509,1.509,0,1,1,.213-2.123A1.511,1.511,0,0,1,981.734,1461.2Zm-1.609-1.968a1.032,1.032,0,1,0,1.453.146A1.033,1.033,0,0,0,980.125,1459.23Z" transform="translate(-979.27 -1458.521)"/></g><g transform="translate(51.284 41.457)"><path class="av" d="M1.318,0H11.4a1.318,1.318,0,0,1,1.318,1.318v0A1.318,1.318,0,0,1,11.4,2.636H1.318A1.318,1.318,0,0,1,0,1.318v0A1.318,1.318,0,0,1,1.318,0Z"/></g><g transform="translate(51.284 36.849)"><path class="av" d="M1.318,0H11.4a1.318,1.318,0,0,1,1.318,1.318v0A1.318,1.318,0,0,1,11.4,2.636H1.318A1.318,1.318,0,0,1,0,1.318v0A1.318,1.318,0,0,1,1.318,0Z"/></g><g transform="translate(77.161 40.471)"><path class="au" d="M1096.5,1350.65a1.509,1.509,0,1,1,.213-2.123A1.511,1.511,0,0,1,1096.5,1350.65Zm-1.608-1.968a1.033,1.033,0,1,0,1.453.146A1.034,1.034,0,0,0,1094.9,1348.682Z" transform="translate(-1094.041 -1347.973)"/></g><g transform="translate(53.288 58.612)"><path class="g" d="M941.709,1485.993l-.287-.206,5.021-6.992,6.482.141,4.627-7.929,5.239-.713,2.956-6.35.32.149-3.037,6.525-5.259.716-4.645,7.959-6.5-.141Z" transform="translate(-941.423 -1463.944)"/></g><g transform="translate(63.95 72.842)"><path class="at" d="M1011.386,1555.483a.941.941,0,1,1-1.235-.494A.941.941,0,0,1,1011.386,1555.483Z" transform="translate(-1009.581 -1554.912)"/></g><g transform="translate(63.773 72.666)"><path class="au" d="M1010.011,1555.93a1.117,1.117,0,1,1,.587-1.467A1.118,1.118,0,0,1,1010.011,1555.93Zm-.741-1.729a.764.764,0,1,0,1,.4A.765.765,0,0,0,1009.27,1554.2Z" transform="translate(-1008.454 -1553.787)"/></g><g transform="translate(68.595 64.956)"><path class="at" d="M1041.081,1505.073a.941.941,0,1,1-1.235-.494A.941.941,0,0,1,1041.081,1505.073Z" transform="translate(-1039.276 -1504.502)"/></g><g transform="translate(68.419 64.78)"><path class="au" d="M1039.707,1505.52a1.117,1.117,0,1,1,.587-1.467A1.118,1.118,0,0,1,1039.707,1505.52Zm-.741-1.729a.764.764,0,1,0,1,.4A.765.765,0,0,0,1038.966,1503.791Z" transform="translate(-1038.15 -1503.376)"/></g><g transform="translate(73.779 64.164)"><path class="at" d="M1074.221,1500.008a.941.941,0,1,1-1.235-.494A.94.94,0,0,1,1074.221,1500.008Z" transform="translate(-1072.415 -1499.437)"/></g><g transform="translate(57.468 72.787)"><path class="at" d="M969.953,1555.134a.941.941,0,1,1-1.235-.494A.94.94,0,0,1,969.953,1555.134Z" transform="translate(-968.148 -1554.564)"/></g><g transform="translate(57.292 72.611)"><path class="au" d="M968.579,1555.581a1.117,1.117,0,1,1,.587-1.467A1.118,1.118,0,0,1,968.579,1555.581Zm-.741-1.729a.764.764,0,1,0,1,.4A.765.765,0,0,0,967.838,1553.852Z" transform="translate(-967.022 -1553.438)"/></g><g transform="translate(73.603 63.988)"><path class="au" d="M1072.847,1500.455a1.117,1.117,0,1,1,.587-1.467A1.119,1.119,0,0,1,1072.847,1500.455Zm-.741-1.729a.764.764,0,1,0,1,.4A.765.765,0,0,0,1072.105,1498.726Z" transform="translate(-1071.29 -1498.312)"/></g><g transform="translate(44.932 26.517)"><path class="q" d="M888.007,1263.1s1.343-.421,1.451-1.218a4.513,4.513,0,0,1,.886-1.734c.25-.333.635-1.642,1.058-1.331s-.531,2.188-.653,2.621,1.715-.392,2.17-.278,1.649,3.233.323,3.654-3.021-.006-3.239.114a8.5,8.5,0,0,1-.953.344Z" transform="translate(-888.007 -1258.77)"/></g><g transform="translate(49.513 28.061)"><path class="q" d="M917.288,1269.512a31.034,31.034,0,0,1,4.479-.854c.333.163.375.391-.009.5s-3.977,1.1-3.977,1.1,5.109-.38,5.411-.305c.177.043.284.48.084.558s-5.242.745-5.242.745,4.771-.346,5.005-.208a.329.329,0,0,1-.149.6c-.352.05-4.762.621-4.762.621s3.488-.033,3.618.2c.079.143.19.516-.711.5s-3.029.157-3.029.157Z" transform="translate(-917.288 -1268.64)"/></g><g transform="translate(22.774 18.075)"><path class="g" d="M748.818,1213.1s1.077,1.9,2.516,4.037c.133.2.268.4.406.595a0,0,0,0,0,0,0c.188.27.379.541.573.81.232.321.47.641.71.951,1.335,1.731,2.741,3.2,3.807,3.466,2.308.568,13.905-2,13.905-2l-.9-4.56a36.53,36.53,0,0,1-6.783,1.611c-1.666.139-3.745.686-3.991.531s-5-7.015-5.343-7.755a24.894,24.894,0,0,0-3.157-5.032,2.583,2.583,0,0,0-2.7-.859C743.976,1207.426,748.818,1213.1,748.818,1213.1Z" transform="translate(-746.352 -1204.798)"/></g><g transform="translate(26.019 103.282)"><path class="y" d="M771.557,1749.846a8.792,8.792,0,0,0,3.614,2.278c1.821.395,3.095.9,3.108,1.979s-5.24,1.793-7.323.7c-3.11-1.626-3.426-1.136-3.771-1.949s.414-2.986.392-3.245C767.55,1749.293,771.557,1749.846,771.557,1749.846Z" transform="translate(-767.095 -1749.513)"/></g><g transform="translate(26.498 102.183)"><path class="aw" d="M773.939,1743.019a7.409,7.409,0,0,1,.2.9c-.035.019-4.1.474-3.98-.234.1-.574.242-1.2.242-1.2Z" transform="translate(-770.158 -1742.488)"/></g><g transform="translate(3.211 45.872)"><path class="ax" d="M644.252,1386.356s1.884,13.684,2.653,18.31c.9,5.409,1.2,9.877,1.456,12.677.316,3.521.734,21.54.955,22.57s-5.487.494-5.487.494-2.99-23.491-3.93-27.241c-.875-3.492-3.423-18.574-4.222-17.62s-4.213,18.161-4.8,20.916-3.9,24.839-3.9,24.839-3.541.642-5.687-.441c0,0,1.665-19.317,2.042-24.479.144-1.968.494-23.585,3.821-32.291C628.908,1379.489,644.252,1386.356,644.252,1386.356Z" transform="translate(-621.287 -1382.503)"/></g><path class="g" d="M658.976,1197.335s4.985,1.031,5.577,1.554c.642.558,1.774,6.017,1.842,7.538a58.693,58.693,0,0,1-1.243,10.24c-.642,2.366-.409,14,0,17.282,0,0-7.386,3.308-19.855.305,0,0,2.171-10.791,1.776-14.033-.506-4.153-1.5-14.345-1.5-14.345s-.031-6.235.848-6.978,7.346-1.564,7.346-1.564Z" transform="translate(-638.327 -1180.427)"/><path class="g" d="M630.951,1204.616s3.123.86,1.4,6.592c-1.346,4.489-1.528,5.453-1.528,5.453l-7.205-1.8s1.844-9.483,5.294-10.3A4.606,4.606,0,0,1,630.951,1204.616Z" transform="translate(-620.047 -1186.443)"/><path class="ay" d="M778.2,1256.911c.133.2.268.4.406.595a0,0,0,0,0,0,0c.188.27.379.541.573.81a32.732,32.732,0,0,0-.555-6.373A33.349,33.349,0,0,1,778.2,1256.911Z" transform="translate(-750.445 -1226.495)"/><rect class="az" width="3.061" height="4.674" transform="translate(23.111 26.299)"/><path class="ba" d="M703.569,1191.828a9.722,9.722,0,0,1-5.663-.16l-.178,1.262s3.462,1.315,6.167.713Z" transform="translate(-682.56 -1175.647)"/><path class="q" d="M606.328,1425.693a9.321,9.321,0,0,0,.481,1.915,14.016,14.016,0,0,1,.843,2.023c.056.212.389,1.728.448,1.92s-.378.478-.66.068a12.717,12.717,0,0,1-.59-1.557c-.121-.318-.494-1.325-.607-1.146a11.685,11.685,0,0,0-.15,1.857,11.169,11.169,0,0,0,.252,1.845c.09.44.622,2.289.386,2.381s-.432.06-.72-.44c0,0-.484.254-.746-.357,0,0-.431.143-.674-.651a1.057,1.057,0,0,1-.409-.46,17.224,17.224,0,0,1-.7-3.7c.033-.983.282-1.662.259-2.357a18.546,18.546,0,0,0-.338-2.19Z" transform="translate(-602.988 -1372.35)"/><g transform="translate(0 20.476)"><path class="g" d="M604.952,1254.716a19.28,19.28,0,0,1-4.19.064s1.4-15.9,1.327-16.795c-.067-.831,3.209-15.6,5.009-17.839l2.737,8.64a76.031,76.031,0,0,0-3.018,9.724C606.766,1239.735,604.952,1254.716,604.952,1254.716Z" transform="translate(-600.762 -1220.146)"/></g><path class="bb" d="M696.039,1094.93a14.418,14.418,0,0,0-.242-4.328c-.3-1.165-2.182-.846-2.182-.846h0c-2.876-.862-4.61-.466-5.7,0-1.631,1.336-1.755,3.61-1.681,4.863.033.3.067.595.1.885,0,.006,0,.009,0,.009.148,1.245.3,2.329.3,2.329l.518.6s-.133-2.074.186-2.191c.171-.063.212-.482.214-.855,0-.321-.026-.609-.026-.609a9.536,9.536,0,0,1,7.143-.229c.052.133.128.531.2.884.045.214.089.411.127.522a17.085,17.085,0,0,1,.061,2.166l.648-.847s.082-.4.189-1.012h0c.035-.2.072-.417.11-.651C696.006,1095.621,696.034,1095.356,696.039,1094.93Z" transform="translate(-672.852 -1089.249)"/><g transform="translate(86.776)"><path class="y" d="M1339.135,1766.854A15.96,15.96,0,0,0,1340.5,1769c.538.61,2.6,1.7,2.61,3.511.012,1.964-3.473,1.419-4.836,1.347s-1.466-1.121-2.04-2.233-1.152-.924-1.26-1.821a10.6,10.6,0,0,1,.556-2.951Z" transform="translate(-1307.505 -1663.522)"/><g transform="translate(7.128 19.691)"><path class="ax" d="M1205.956,1251.39s3.839-8.947,4.3-11.149c.21-1,.786-3.478,1.15-5.515.12-.671.222-1.363.308-2.039a.005.005,0,0,0,0,0c.342-2.7.43-5.168.43-5.168s2.039-6.988-2.329-7.414a10.8,10.8,0,0,0-1.609.662c-.736,1.718-1.025,6.1-1.051,7.047-.021.77-1.151,8.538-1.167,8.813-.032.534-1.193,3.334-1.817,5.411-1.359,4.524-2.075,8.093-2.075,8.093Z" transform="translate(-1202.096 -1220.102)"/></g><rect class="g" width="19.69" height="17.224" transform="translate(19.69 52.679) rotate(180)"/><g transform="translate(5.816 44.33)"><g transform="translate(0 0)"><rect class="bc" width="1.096" height="5.297" transform="translate(1.096 5.297) rotate(180)"/></g></g><g transform="translate(4.293 45.722)"><g transform="translate(0 0)"><rect class="bc" width="1.096" height="3.905" transform="translate(1.096 3.905) rotate(180)"/></g></g><g transform="translate(2.779 43.668)"><g transform="translate(0 0)"><rect class="bc" width="1.096" height="5.958" transform="translate(1.096 5.958) rotate(180)"/></g></g><path class="q" d="M1185.081,1425.264s.113,2.321,1.361,2.723a4.248,4.248,0,0,0,3.181-.309c.574-.352,2.021-1.374,1.481-2.016C1189.371,1423.6,1185.081,1425.264,1185.081,1425.264Z" transform="translate(-1180.556 -1373.65)"/><path class="q" d="M1181.058,1437.279s-1.558.114-1.474-.547,1.206-.4,1.206-.4Z" transform="translate(-1175.897 -1383.518)"/><g transform="translate(10.578 45.595)"><g transform="translate(0 0)"><rect class="bc" width="1.096" height="4.032" transform="translate(1.096 4.032) rotate(180)"/></g></g><g transform="translate(9.018 45.188)"><g transform="translate(0 0)"><rect class="bc" width="1.096" height="4.438" transform="translate(1.096 4.438) rotate(180)"/></g></g><g transform="translate(7.437 46.033)"><g transform="translate(0 0)"><rect class="bc" width="1.096" height="3.594" transform="translate(1.096 3.594) rotate(180)"/></g></g><g transform="translate(12.191 46.033)"><g transform="translate(0 0)"><rect class="bc" width="1.096" height="3.594" transform="translate(1.096 3.594) rotate(180)"/></g></g><g transform="translate(2.627 38.073)"><g transform="translate(14.493 5.303)"><path class="bc" d="M1267.445,1374.933a.389.389,0,0,1-.03.044l.044.03,1.174.792.03-.044-1.174-.792Z" transform="translate(-1267.415 -1374.933)"/></g><g transform="translate(10.287 5.117)"><path class="bc" d="M1239.92,1374.129a.339.339,0,0,1,.006.053l.053-.006,3.362-.4.053-.006a.412.412,0,0,1-.006-.053l-.053.006-3.362.4Z" transform="translate(-1239.92 -1373.717)"/></g><g transform="translate(6.985 2.975)"><path class="bc" d="M1218.335,1359.754l.039.036,2.5,2.262.04.036a.387.387,0,0,1,.036-.039l-.039-.036-2.5-2.262-.04-.036A.327.327,0,0,1,1218.335,1359.754Z" transform="translate(-1218.335 -1359.715)"/></g><g transform="translate(2.908 2.692)"><path class="bc" d="M1191.686,1357.89c0,.009,0,.017,0,.026h3.378c0-.009,0-.017,0-.026s0-.018,0-.027h-3.378C1191.686,1357.872,1191.686,1357.881,1191.686,1357.89Z" transform="translate(-1191.685 -1357.863)"/></g><path class="bc" d="M1172.674,1340.3l2.163,2.358.036.039a.416.416,0,0,1,.039-.036l-.036-.039-2.163-2.359Z" transform="translate(-1172.674 -1340.265)"/><g transform="translate(13.701 4.63)"><path class="bc" d="M1262.239,1370.994c0,.009,0,.019,0,.028a.465.465,0,0,0,.835.253.5.5,0,0,0,.03-.044.466.466,0,1,0-.866-.238Zm.054.022c0-.007,0-.015,0-.022a.413.413,0,1,1,.769.208.452.452,0,0,1-.03.044.412.412,0,0,1-.732-.177A.394.394,0,0,1,1262.293,1371.016Z" transform="translate(-1262.239 -1370.528)"/></g><g transform="translate(9.416 5.139)"><path class="bc" d="M1234.227,1374.325a.465.465,0,1,0,.931,0c0-.01,0-.019,0-.029a.465.465,0,0,0-.464-.437.464.464,0,0,0-.327.134.422.422,0,0,0-.036.039A.463.463,0,0,0,1234.227,1374.325Zm.053,0a.411.411,0,0,1,.09-.257.35.35,0,0,1,.036-.039.412.412,0,0,1,.692.221.447.447,0,0,1,.006.053c0,.007,0,.015,0,.022a.413.413,0,0,1-.825,0Z" transform="translate(-1234.227 -1373.859)"/></g><g transform="translate(6.232 2.253)"><path class="bc" d="M1213.415,1355.459c0,.009,0,.018,0,.027a.465.465,0,1,0,0-.053C1213.415,1355.442,1213.415,1355.451,1213.415,1355.459Zm.054.027c0-.009,0-.018,0-.027s0-.017,0-.026a.412.412,0,1,1,.734.283.378.378,0,0,1-.036.039.412.412,0,0,1-.7-.269Z" transform="translate(-1213.415 -1354.994)"/></g><g transform="translate(2.031 2.253)"><path class="bc" d="M1185.952,1355.459a.465.465,0,0,0,.93.027c0-.009,0-.018,0-.027s0-.018,0-.026a.465.465,0,0,0-.759-.334.5.5,0,0,0-.039.036A.464.464,0,0,0,1185.952,1355.459Zm.053,0a.411.411,0,0,1,.115-.285.417.417,0,0,1,.039-.036.412.412,0,0,1,.67.295.363.363,0,0,1,0,.053.412.412,0,0,1-.824-.027Z" transform="translate(-1185.952 -1354.994)"/></g></g><g transform="translate(40.154 51.309)"><path class="q" d="M1419.917,1426.783s.677,1.18,1.479,1.157a4.839,4.839,0,0,1,1.876.552c.376.179,1.736.333,1.514.775s-2.252-.152-2.7-.2.721,1.53.7,1.969-2.851,2.033-3.524.868-.586-2.8-.747-2.987a8.25,8.25,0,0,1-.524-.83Z" transform="translate(-1417.989 -1426.783)"/></g><g transform="translate(41.46 55.259)"><path class="q" d="M1429.924,1452.609a29.109,29.109,0,0,1,1.716,4.021c-.1.334-.311.409-.5.07s-1.858-3.518-1.858-3.518,1.374,4.68,1.36,4.972c-.008.171-.416.338-.532.165s-1.759-4.747-1.759-4.747,1.275,4.372,1.186,4.611a.339.339,0,0,1-.614-.046c-.118-.319-1.543-4.321-1.543-4.321s.716,3.231.513,3.387c-.125.1-.469.256-.626-.582s-.749-2.786-.749-2.786Z" transform="translate(-1426.524 -1452.609)"/></g><g transform="translate(4.584 102.821)"><path class="y" d="M1191.764,1763.849a8.22,8.22,0,0,1-3.385,2.268c-1.705.393-2.9.894-2.911,1.97s4.907,1.785,6.859.7c2.912-1.619,3.209-1.131,3.532-1.94s-.388-2.973-.367-3.231C1195.517,1763.3,1191.764,1763.849,1191.764,1763.849Z" transform="translate(-1185.468 -1763.517)"/></g><g transform="translate(10.876 101.727)"><path class="bd" d="M1226.794,1756.893a7.8,7.8,0,0,0-.189.9c.033.019,3.843.473,3.728-.232-.094-.572-.227-1.193-.227-1.193Z" transform="translate(-1226.601 -1756.364)"/></g><g transform="translate(27.935 102.408)"><path class="bd" d="M1338.243,1761.15a7.5,7.5,0,0,0-.129.858c.031.02,3.863.7,3.841.009a3.349,3.349,0,0,0-.353-1.2Z" transform="translate(-1338.11 -1760.82)"/></g><g transform="translate(10.497 45.62)"><path class="ax" d="M1228.159,1393.643s-1.386,13.455-2.106,18.062c-.842,5.385-1.128,9.835-1.363,12.623-.3,3.506-.352,20.753-.559,21.778s4.589.283,4.589.283,2.359-22.535,3.24-26.269c.82-3.476,3.861-18.445,4.609-17.5s1.675,17.468,2.229,20.21,2.238,24.21,2.238,24.21,3.817.76,4.833-.1c0,0,.462-18.5.109-23.641-.134-1.959,2.3-23.491-.82-32.159C1243.51,1386.562,1228.159,1393.643,1228.159,1393.643Z" transform="translate(-1224.124 -1389.6)"/></g><g transform="translate(13.368 16.02)"><path class="be" d="M1271.094,1231.644s-1.042,1.2-2.02,1.024-5.073-12.662-5.111-15.16a63.7,63.7,0,0,0-1.138-7.375.043.043,0,0,1,0,.009s0,0,0,.006,0,.006,0,.009a51.133,51.133,0,0,0-1.658,8.619c-.055,2.768.165,12.291.165,12.291l-3.707.993-11.842.111-2.7-1.1s.3-3.062.405-5.212c.068-1.367.334-3.815.266-6.2a21.959,21.959,0,0,0-.207-3.595c-.027-4.776-.316-9.507-.316-9.507q-.24-3.248-.335-6.079c.522-.276,1.15-.6,1.654-.839,1.555-.741,3.722-1.738,5.113-2.376.815-.374,1.612-.647,1.612-.647s5.558-.533,6.01-.5a14.14,14.14,0,0,1,1.749.6,63.853,63.853,0,0,1,6.376,2.706c.887.635,2.764,15.733,2.848,16.79C1268.4,1218.106,1271.094,1231.644,1271.094,1231.644Z" transform="translate(-1242.888 -1196.107)"/></g><path class="ao" d="M1244.468,1418.023a98.5,98.5,0,0,0,15.259,0v2.338s-10.609,1.013-15.616-.446Z" transform="translate(-1230.556 -1368.055)"/><g transform="translate(11.205 16.866)"><path class="ax" d="M1230.781,1205.121c.062,1.92.156,3.981.319,6.186,0,0,.154,5.387.464,10.5a10.159,10.159,0,0,1,.1,2.246c-.077,1-.185,2.09-.316,3.228l0,.043c-.031.27-.064.542-.1.816,0,0,0,.008,0,.012a119.44,119.44,0,0,1-2.474,14.2c-.129.413.316.794.634,1.088l2.225,1.4s.917-8.444,1.222-11.31c.294-2.767,1.219-6.476,1.624-10.09v0c.514-4.585,1.221-9.077,1.6-11.746a44.664,44.664,0,0,1,2.316-10.056C1237.761,1201.822,1230.781,1205.121,1230.781,1205.121Z" transform="translate(-1228.748 -1201.633)"/></g><g transform="translate(24.56 16.324)"><path class="ax" d="M1325.763,1219.3c.172,2.318,4.413,15.852,4.977,15.793a41.791,41.791,0,0,0,4.316-1.151s-4.1-13.759-4.241-15.209c-.105-1.056-1.786-16.886-2.673-17.522-.512-.368-4.309-1.714-6.172-2.448-.341-.135-1.463-.557-1.768-.673-.4.44-3.159,3.431-4.121,14.789a71.431,71.431,0,0,0,.692,9.276c.365,3.53.769,6.285,1.065,9.236.583,5.816.991,10.443.991,10.443l5.788-2.577c.937-.468,2.234-2.391,1.882-3.377-1.338-3.748-3.023-10.151-3.025-13.439,0,0,.646-8.053,1.158-9.823A49.632,49.632,0,0,1,1325.763,1219.3Z" transform="translate(-1316.05 -1198.094)"/></g><path class="q" d="M1284.233,1102.241s-5.8-2.147-5.44,5.564,1.723,8.495,5.54,7.418,4.137-5.944,4.634-8.285S1286.131,1102.578,1284.233,1102.241Z" transform="translate(-1259.919 -1100.347)"/><path class="bb" d="M1287.289,1101.8s.016-2.06-.84-2.25-1.3,1-1.3,1l-.69-.037s.617-2.088-.2-2.566-5.7-.058-6.315-.761.276-4.876,1.609-5.286,4.974-1.241,7.286.818c0,0,2.011.038,2.092,1.676A22.123,22.123,0,0,1,1287.289,1101.8Z" transform="translate(-1259.048 -1091.383)"/><path class="q" d="M1325.565,1136.639c.256-.68,1.7-.594,1.555.483s-1.344,2.737-1.825,2.426S1325.212,1137.576,1325.565,1136.639Z" transform="translate(-1299.133 -1129.348)"/><g transform="translate(21.792 12.06)"><path class="z" d="M1303.408,1174.771s-.512-.422.222-4.283c.2-1.033-5.448,1.233-5.448,1.233s.046.847.04,1.7c0,.381-.014.76-.046,1.066a3.563,3.563,0,0,1-.207.745C1297.715,1175.817,1301.322,1176.264,1303.408,1174.771Z" transform="translate(-1297.958 -1170.218)"/></g><path class="bf" d="M1299.393,1183.145a4.824,4.824,0,0,0,4.51-2.7,6.294,6.294,0,0,1-4.464,1.634C1299.437,1182.46,1299.424,1182.839,1299.393,1183.145Z" transform="translate(-1277.381 -1166.82)"/><path class="ax" d="M1302.619,1213.048l-1.027,1.38a1.245,1.245,0,0,0,1.67.211Z" transform="translate(-1279.244 -1194.436)"/><path class="ax" d="M1286.174,1222.23s-3.81,14.667-3.024,26.085l1.282,2.259,1.2-2.366s.329-20.422,1.373-26.013Z" transform="translate(-1263.532 -1202.183)"/><path class="z" d="M1301.117,1202.462l1.1,1.287s1.765-.342,2.283-1.264S1301.117,1202.462,1301.117,1202.462Z" transform="translate(-1278.841 -1185.136)"/><path class="bg" d="M1295.551,1197.277a5.3,5.3,0,0,0,1.352,2.413l-1.336,1.8-.723-3.724Z" transform="translate(-1273.527 -1181.078)"/><path class="bg" d="M1312.009,1190.717s-1.918,2.711-3.7,3.416l.83,2.053,3.793-4.584Z" transform="translate(-1284.931 -1175.521)"/></g></g><g transform="translate(994.701 524.979)"><circle class="g" cx="49" cy="49" r="49" transform="translate(0.299 0.02)"/><ellipse class="bh" cx="44.466" cy="44.466" rx="44.466" ry="44.466" transform="translate(4.624 4.895)"/><ellipse class="h" cx="39.93" cy="39.93" rx="39.93" ry="39.93" transform="translate(9.16 9.431)"/><g transform="translate(10.907 11.178)"><g transform="translate(37.038 0)"><rect class="bi" width="2.155" height="7.273" rx="1.077"/><rect class="bi" width="2.155" height="7.273" rx="1.077" transform="translate(0.135 69.093)"/></g><g transform="translate(0 37.038)"><rect class="bi" width="2.155" height="7.273" rx="1.077" transform="translate(76.366 0) rotate(90)"/><rect class="bi" width="2.155" height="7.273" rx="1.077" transform="translate(7.273 0.135) rotate(90)"/></g><g transform="translate(11.24 11.178)"><path class="bi" d="M1.077,0h0A1.078,1.078,0,0,1,2.155,1.078V3.685A1.077,1.077,0,0,1,1.078,4.762h0A1.078,1.078,0,0,1,0,3.684V1.077A1.077,1.077,0,0,1,1.077,0Z" transform="matrix(0.707, 0.707, -0.707, 0.707, 52.33, 0)"/><path class="bi" d="M1.077,0h0A1.078,1.078,0,0,1,2.155,1.078V4.3A1.077,1.077,0,0,1,1.077,5.378h0A1.077,1.077,0,0,1,0,4.3V1.077A1.077,1.077,0,0,1,1.077,0Z" transform="matrix(0.707, 0.707, -0.707, 0.707, 3.804, 48.716)"/></g><g transform="translate(11.146 11.272)"><path class="bi" d="M1.077,0h0A1.078,1.078,0,0,1,2.155,1.078V3.684A1.077,1.077,0,0,1,1.078,4.762h0A1.078,1.078,0,0,1,0,3.684V1.077A1.077,1.077,0,0,1,1.077,0Z" transform="matrix(-0.707, 0.707, -0.707, -0.707, 54.043, 52.33)"/><path class="bi" d="M1.077,0h0A1.078,1.078,0,0,1,2.155,1.078V4.3A1.077,1.077,0,0,1,1.077,5.378h0A1.077,1.077,0,0,1,0,4.3V1.077A1.077,1.077,0,0,1,1.077,0Z" transform="matrix(-0.707, 0.707, -0.707, -0.707, 5.326, 3.804)"/></g></g><g transform="translate(47.886 22.614)"><rect class="g" width="2.379" height="27.364" rx="1.19" transform="translate(0 0)"/><rect class="g" width="2.379" height="19.631" rx="1.19" transform="translate(19.631 27.066) rotate(90)"/></g><line class="bj" x1="17.846" y2="16.061" transform="translate(49.224 33.173)"/><ellipse class="bk" cx="4.313" cy="4.313" rx="4.313" ry="4.313" transform="translate(44.778 45.048)"/></g><g transform="translate(1160.711 676.593)"><g transform="translate(40.541 34.771)"><rect class="bl" width="16.265" height="0.966" transform="translate(16.265 0.966) rotate(180)"/></g><g transform="translate(53.201 38.249)"><rect class="bm" width="1.425" height="43.909"/></g><g transform="translate(31.781 34.497)"><rect class="bn" width="11.306" height="1.379" transform="translate(11.306 1.379) rotate(180)"/></g><g transform="translate(35.293 22.733)"><rect class="bn" width="4.281" height="13.004" transform="translate(4.281 13.004) rotate(180)"/></g><g transform="translate(0 35.753)"><rect class="bo" width="62.64" height="2.497" transform="translate(62.64 2.497) rotate(180)"/></g><g transform="translate(67.741 16.448)"><path class="v" d="M2274.4,1348.361s.685,9.608-1.192,10.758c-1.176.72-5.865,3.15-5.726,3.605s2.647,4.054,2.647,4.054,9.006-5.931,9.3-7.8c.284-1.826-.443-14.068-1.681-14.631-.927-.422-1.417-.073-2.585.794A2.735,2.735,0,0,0,2274.4,1348.361Z" transform="translate(-2267.481 -1344.167)"/></g><g transform="translate(57.454 20.823)"><path class="bp" d="M2196.189,1377.385l-.794-.294s.99-2.324,1.422-2.267a10.784,10.784,0,0,1,1.119.229Z" transform="translate(-2195.395 -1374.823)"/></g><g transform="translate(58.067 20.667)"><path class="bq" d="M2199.687,1376.853c.1-.076,1.687-3.118,1.687-3.118l3.389.46-1.831,3.6Z" transform="translate(-2199.687 -1373.735)"/></g><g transform="translate(63.581 75.912)"><path class="br" d="M2238.33,1761.1s.28,1.944.315,2.236,3.115-.172,3.115-.172l.25-2.314A18.25,18.25,0,0,0,2238.33,1761.1Z" transform="translate(-2238.33 -1760.849)"/></g><g transform="translate(58.518 78.02)"><path class="ax" d="M2208.194,1775.753a8.316,8.316,0,0,1-1.92,1.682c-.944.511-2.427.713-2.985,1.242-.4.381-1.468,2.024,2.453,1.991s5.811.232,6.231-.4-.608-4.648-.608-4.648A8.3,8.3,0,0,1,2208.194,1775.753Z" transform="translate(-2202.848 -1775.621)"/></g><g transform="translate(43.844 75.931)"><path class="br" d="M2100.029,1761.229s.28,1.944.315,2.236,3.115-.172,3.115-.172l.25-2.314A18.246,18.246,0,0,0,2100.029,1761.229Z" transform="translate(-2100.029 -1760.979)"/></g><g transform="translate(36.97 78.039)"><path class="ax" d="M2059.014,1775.882a8.317,8.317,0,0,1-1.92,1.682c-.944.51-4.418.93-4.976,1.459-.4.381-1.073,1.917,4.443,1.774,3.92-.1,5.811.232,6.231-.4s-.607-4.648-.607-4.648A7.533,7.533,0,0,1,2059.014,1775.882Z" transform="translate(-2051.857 -1775.75)"/></g><g transform="translate(41.37 42.583)"><path class="ax" d="M2114.839,1527.3s-11.2,1.9-13.729,2.292-16.245,3.81-17.96,4.85c-1.365.828.716,20.709,1.2,28.295h5.4l.392-22.754c6.483.162,11.109-1.517,15.83-.8s8.656,1.736,11.656-2.287C2117.632,1536.9,2117.743,1528.182,2114.839,1527.3Z" transform="translate(-2082.692 -1527.303)"/></g><g transform="translate(60.805 45.005)"><path class="ax" d="M2220.551,1577.309l5.264-.325.513-22.447a31.985,31.985,0,0,0,6.006-.381l4.251-9.88c-3.726.745-15.661,3.755-17.253,4.72C2217.967,1549.823,2220.064,1569.723,2220.551,1577.309Z" transform="translate(-2218.878 -1544.275)"/></g><g transform="translate(61.84 0.406)"><path class="q" d="M2232.646,1231.954s-4.105-1.135-5.672,2.053-.856,9.229,1.213,9.8,5.045-.086,5.9-2.07a15.219,15.219,0,0,0,1.339-6.628A4,4,0,0,0,2232.646,1231.954Z" transform="translate(-2226.125 -1231.758)"/></g><g transform="translate(64.745 9.023)"><path class="q" d="M2246.713,1294.934a12.554,12.554,0,0,1-.222,2.94c-.268.517,5.717.387,5.717.387a12.143,12.143,0,0,1-.408-5.39C2252.329,1290.417,2246.713,1294.934,2246.713,1294.934Z" transform="translate(-2246.482 -1292.141)"/></g><g transform="translate(61.712)"><path class="bs" d="M2233.9,1237.749s-.32.651-1.869.545-3.592-1.973-4.25-2.141-.7-.541-.7-.541l-.348.619-.674.1s.458-1.873-.54-2.532.449-5.971,5.5-4.69c0,0,3.854.706,3.906,2.859S2234.652,1236.609,2233.9,1237.749Z" transform="translate(-2225.23 -1228.913)"/></g><g transform="translate(64.439 13.101)"><path class="bl" d="M2244.338,1322.31s.017-.987.464-1.082,4.7-.68,5.253-.464l.236,1.3S2249.233,1322.719,2244.338,1322.31Z" transform="translate(-2244.338 -1320.716)"/></g><g transform="translate(63.154 5.162)"><path class="q" d="M2235.387,1266.181c.115-.809,1.035-1.739,1.562-.478s-.356,3.1-.946,3S2235.231,1267.278,2235.387,1266.181Z" transform="translate(-2235.333 -1265.084)"/></g><g transform="translate(46.592 26.359)"><path class="v" d="M2119.3,1413.618h.007C2119.277,1413.631,2119.273,1413.632,2119.3,1413.618Z" transform="translate(-2119.282 -1413.617)"/></g><g transform="translate(69.559 1.179)"><path class="bs" d="M2280.219,1237.179s5.006-.236.874,7.579Z" transform="translate(-2280.219 -1237.178)"/></g><g transform="translate(64.606 74.753)"><path class="bt" d="M2261.618,1758.672l-.373,1.048-15.734-4.875.754-2.121Z" transform="translate(-2245.512 -1752.723)"/></g><g transform="translate(64.067 59.021)"><g transform="translate(0 0)"><rect class="bt" width="1.788" height="17.106" transform="translate(1.788 17.106) rotate(180)"/></g></g><g transform="translate(59.687 58.112)"><g transform="translate(0)"><rect class="bu" width="10.548" height="1.008" transform="translate(10.548 1.008) rotate(180)"/></g></g><g transform="translate(49.07 74.62)"><path class="bt" d="M2136.647,1757.872l.372,1.048,15.734-4.875-.692-2.254Z" transform="translate(-2136.647 -1751.79)"/></g><g transform="translate(60.156 74.62)"><path class="bt" d="M2214.328,1758.808v1.219l5.021-5.982-.692-2.254Z" transform="translate(-2214.328 -1751.79)"/></g><g transform="translate(47.6 80.688)"><ellipse class="bv" cx="1.47" cy="1.47" rx="1.47" ry="1.47"/></g><g transform="translate(60.031 80.688)"><path class="bv" d="M2213.453,1795.785a1.47,1.47,0,1,0,1.471-1.47A1.47,1.47,0,0,0,2213.453,1795.785Z" transform="translate(-2213.453 -1794.315)"/></g><g transform="translate(79.242 80.688)"><path class="bv" d="M2348.07,1795.785a1.471,1.471,0,1,0,1.47-1.47A1.471,1.471,0,0,0,2348.07,1795.785Z" transform="translate(-2348.07 -1794.315)"/></g><g transform="translate(52.397 54.294)"><path class="bl" d="M1.909,0h21.17a1.909,1.909,0,0,1,1.909,1.909v0a1.909,1.909,0,0,1-1.909,1.909H1.909A1.909,1.909,0,0,1,0,1.909v0A1.909,1.909,0,0,1,1.909,0Z" transform="translate(24.988 3.818) rotate(180)"/></g><g transform="translate(8.014 38.249)"><rect class="bm" width="1.425" height="43.909" transform="translate(1.425 43.909) rotate(180)"/></g><g transform="translate(18.949 2.918)"><rect class="bw" width="36.968" height="26.079" rx="2" transform="translate(36.968 26.079) rotate(180)"/></g><g transform="translate(20.397 4.328)"><rect class="bx" width="34.073" height="20.583" transform="translate(34.073 20.583) rotate(180)"/></g><g transform="translate(36.241 25.364)"><path class="by" d="M2046.75,1407.839a1.193,1.193,0,1,0,1.193-1.192A1.193,1.193,0,0,0,2046.75,1407.839Z" transform="translate(-2046.75 -1406.646)"/></g><g transform="translate(29.78 32.435)"><path class="bl" d="M2001.479,1459.546v-.464s.652-2.887,5.267-2.887,4.522,3.351,4.522,3.351Z" transform="translate(-2001.479 -1456.195)"/></g><g transform="translate(31.339 31.076)"><path class="q" d="M2020.689,1448.46a4.548,4.548,0,0,1-1.37-.3c-.367-.222-2.565-1.7-3.081-1.463s-3.951,1.289-3.832,1.791.437.454.68.365a17.661,17.661,0,0,1,2.957-.524s-2.45.894-2.46,1.546.513.811.745,1.057.511.859,1.143.906,3.712-1.025,4.347-1.074a15.374,15.374,0,0,0,1.888-.064A17.551,17.551,0,0,0,2020.689,1448.46Z" transform="translate(-2012.402 -1446.672)"/></g><g transform="translate(38.589 14.452)"><path class="v" d="M2082.491,1331.794c3.2-.562,6.561-1.368,6.561-1.368l5.954-.243a57.88,57.88,0,0,1,7.615,2.175c.2.092.205,4.874.765,6.128l-1.784,3.764s-1.03,7.456-1.244,10.771c-.1,1.522.278,14.711.278,14.711a22.957,22.957,0,0,1-4.6.712c-4.063.448-14.215-.162-14.279-.642s1.966-17.869,2.056-18.77c.138-1.382-.4-7.769-.4-7.769-.766,1.028-2.717,5.672-4.751,7.882-1.2,1.3-7.122,2.1-8.239,2.134-2.431.081-6.866.565-7,.329-.1-.142-.386-3.937-.109-4.029.244-.081,8.479-.555,10.589-1.675.772-.41,3.079-5.441,3.079-5.441S2080.728,1332.586,2082.491,1331.794Z" transform="translate(-2063.202 -1330.183)"/></g><g transform="translate(65.991 27.753)"><rect class="bl" width="17.232" height="23.867" rx="8.616" transform="translate(17.232 23.867) rotate(180)"/></g><g transform="translate(68.086 42.99)"><path class="bl" d="M2270.852,1544.325a7.9,7.9,0,0,0,6.125-2.536c3.445-3.8,2.826-10.489,2.8-10.772a.959.959,0,0,0-1.908.189c.007.076.556,6.136-2.314,9.3a5.98,5.98,0,0,1-4.7,1.9.959.959,0,1,0,0,1.917Z" transform="translate(-2269.893 -1530.152)"/></g><g transform="translate(42.073 5.967)"><g transform="translate(0 0)"><path class="bz" d="M.544,0H9.437a.544.544,0,0,1,.544.544v0a.544.544,0,0,1-.544.544H.544A.544.544,0,0,1,0,.544v0A.544.544,0,0,1,.544,0Z" transform="translate(9.981 1.088) rotate(180)"/></g></g><g transform="translate(42.073 8.299)"><g transform="translate(0 0)"><path class="bz" d="M.544,0H9.437a.544.544,0,0,1,.544.544v0a.544.544,0,0,1-.544.544H.544A.544.544,0,0,1,0,.544v0A.544.544,0,0,1,.544,0Z" transform="translate(9.981 1.088) rotate(180)"/></g></g><g transform="translate(42.073 10.974)"><g transform="translate(0 0)"><rect class="bz" width="9.981" height="12.296" rx="4.99" transform="translate(9.981 12.296) rotate(180)"/></g></g><g transform="translate(22.285 5.967)"><g transform="translate(0 0)"><path class="bz" d="M8.652,0h.47a8.652,8.652,0,0,1,8.652,8.652v0A8.652,8.652,0,0,1,9.122,17.3H8.651A8.651,8.651,0,0,1,0,8.653v0A8.652,8.652,0,0,1,8.652,0Z" transform="translate(17.774 17.304) rotate(180)"/></g></g></g><g transform="translate(1234.064 626.888)"><g transform="translate(8.542 9.635)"><path class="h" d="M1101.564,275.16l-8.68-3.772a1.405,1.405,0,1,1,1.12-2.577l6.138,2.668,4.432-9.823a1.405,1.405,0,0,1,2.562,1.156Z" transform="translate(-1092.038 -260.827)"/></g><path class="h" d="M1081.785,250a17.741,17.741,0,1,1,4.316-24.716A17.762,17.762,0,0,1,1081.785,250Zm-18.943-26.959a15.207,15.207,0,1,0,21.185,3.7A15.224,15.224,0,0,0,1062.841,223.041Z" transform="translate(-1053.849 -217.748)"/></g></g></svg>